<svg xmlns="http://www.w3.org/2000/svg" id="Layer_1" data-name="Layer 1" viewBox="0 0 300 300"><defs><style>      .cls-1 {        fill: #ef4136;      }    </style></defs><g><g><path class="cls-1" d="M140.52,110.12a1.74,1.74,0,0,0-.46,2.38,1.66,1.66,0,0,0,2.33.48,2,2,0,0,0,.45-.46v-2A1.65,1.65,0,0,0,140.52,110.12Z"></path><path class="cls-1" d="M115.41,230.37h19.66V204.74l7.8-8.78V180a1.93,1.93,0,0,1-1.62.9,2,2,0,0,1,0-4,1.93,1.93,0,0,1,1.62.9c0-1.74,0-3.49,0-5.23l-2.52,2-7.5-5.18V158.72l-8.33-4.67.17-9.52L119,140.35a1.91,1.91,0,0,1-2.34.06,2,2,0,0,1-.43-2.77,1.9,1.9,0,0,1,2.7-.45,2,2,0,0,1,.68,2.31l6,4.5-.11,5.94,11.23,5.5v11.82l3.44,1.75,2.58-1.83v-8.5a1.84,1.84,0,0,1-1-.22,2,2,0,0,1-.76-2.69,1.91,1.91,0,0,1,1.8-1v-1.83l-10.34-5.61a2.16,2.16,0,0,1-2.68.51,2.27,2.27,0,0,1-.91-3,2.16,2.16,0,0,1,3-.94l-.3-.16.3.16a2.28,2.28,0,0,1,1.1,2.54l9.87,5.34v-6.5h-1.21l-10-5.77a1.91,1.91,0,0,1-2.32.33,2,2,0,0,1-.74-2.71,1.91,1.91,0,0,1,2.64-.75,2,2,0,0,1,.92,2.21l9.77,5.63h.93q0-8.32,0-16.66h-6.61l-9.76,5.65a2,2,0,0,1-.92,2.2,1.9,1.9,0,0,1-2.64-.75,2,2,0,0,1,.73-2.7,1.89,1.89,0,0,1,2.32.33l9.88-5.72.14-.07h6.86v-3.53H138a1.94,1.94,0,0,1-1.86,1.46,2,2,0,0,1,0-4,1.92,1.92,0,0,1,1.87,1.45h4.88v-7.22l-.66-1a2.17,2.17,0,0,1-2.55-.87,2.29,2.29,0,0,1,.6-3.12,2.13,2.13,0,0,1,2.6.16v-3.57c0-.61,0-1.22,0-1.84h-5a1.94,1.94,0,1,1-1.86-2.52,1.94,1.94,0,0,1,1.86,1.46h5q0-3.59,0-7.16l-.7-1a2.15,2.15,0,0,1-2.54-.87,2.28,2.28,0,0,1,.6-3.12,2.14,2.14,0,0,1,2.89.47,2.31,2.31,0,0,1,2.42-1.33c1.84,0,3.68.06,5.52.08V81.6a2.25,2.25,0,0,1-1.68-2.19A2.2,2.2,0,1,1,152,81.59v8.82c.17,0,.34,0,.51,0a98.05,98.05,0,0,1,12,.49,2.33,2.33,0,0,1,.08-.46l-9.29-4.39V75l-7.69-3.92-3.25,2.8-4.48-2.6.27-3.93-9.22-5.14v-.45h-1.49L133,70.63A2.18,2.18,0,0,1,135.33,72h0c.23.57.12.29,0,0a2.28,2.28,0,0,1-1.21,2.93,2.18,2.18,0,0,1-2.86-1.24A2.28,2.28,0,0,1,132,71l-3.69-9.27h-4l1.42,3.79a1.92,1.92,0,0,1,2,1.26,2,2,0,0,1-1.11,2.56,1.91,1.91,0,0,1-2.5-1.14,2,2,0,0,1,.66-2.31l-1.57-4.16h-5.74v0a2,2,0,0,1-1.94,2,1.94,1.94,0,0,1-1.86-1.46h-1.32l-.37-.55h-6.54v4.33a1.93,1.93,0,1,1-1,0V61.75H102a2.41,2.41,0,0,1,.34,1.12,2.2,2.2,0,1,1-4.39.06,2.39,2.39,0,0,1,.34-1.18h-12l6.78,11.36h5l7.73,11.5a1.9,1.9,0,0,1,2.23.75,2,2,0,0,1-.49,2.76,1.92,1.92,0,0,1-2.7-.51,2,2,0,0,1,.11-2.4l-7.42-11h-5L85.09,61.75H81.38L89.67,75V90.45h11.58l-4.39-6.79a2.17,2.17,0,0,1-2.55-.89A2.3,2.3,0,0,1,95,79.64a2.17,2.17,0,0,1,3,.65h0l.15.23h0L98,80.29a2.3,2.3,0,0,1-.25,2.79l4.76,7.36h0c.93,0,1.86.07,2.78.14a2.81,2.81,0,0,1,1.81.77H114l4.41,9.08-2.7,3.3,1.87,3.37,3.88-.28,5,10.57h3.87a1.95,1.95,0,1,1,1.87,2.51,1.93,1.93,0,0,1-1.86-1.45h-4.53l-5-10.53-3.84.28-2.54-4.59,2.73-3.32-3.83-7.88h-5.59a3.36,3.36,0,0,1,.19.87c0,.37,0,.73,0,1.1l9.18,17.72a2.17,2.17,0,0,1,2.46,1.12,2.3,2.3,0,0,1-.92,3,2.17,2.17,0,0,1-3-.94l.16.31a2.91,2.91,0,0,1-.16-.31h0a2.28,2.28,0,0,1,.5-2.75l-8.16-15.76c0,.21,0,.43,0,.64a9.45,9.45,0,0,1-.27,2.84,1.83,1.83,0,0,1,.91.85,2,2,0,0,1-.76,2.7,1.94,1.94,0,0,1-2.83-1.36c-.3.11-.62.22-1,.33-2.91.88-5.76,1.87-8.61,2.87l1.22,2.49h11.53l5.37,11.49,5.8-.11,4.4,6.2a1.9,1.9,0,0,1,2.25.69,2,2,0,0,1-.43,2.77,1.9,1.9,0,0,1-2.7-.44,2,2,0,0,1,0-2.4L119,120.63l-9.29.18-4.57-8.53H94.69l-3.33-5.07c-1,.36-1.91.75-2.87,1.12l5.23,6.54h10.09l4,7.64h6.58l3.56,4.92a1.9,1.9,0,0,1,2.26.67,2,2,0,0,1-.4,2.77,1.9,1.9,0,0,1-2.71-.41,2,2,0,0,1,0-2.4l-3.26-4.5h-6.68l-4-7.63h-10l-5.75-7.2c-2.18.86-4.35,1.74-6.49,2.67l4.29,6h16.19l4,8.89v5.29a2,2,0,0,1,1.29,2.6l.69-.27c.09,2.54.19,5.06.28,7.6h2.35l3.13,2.16a2.16,2.16,0,0,1,2.72-.23,2.28,2.28,0,0,1,.6,3.12,2.16,2.16,0,0,1-3,.62,2.29,2.29,0,0,1-.85-2.63l-2.88-2h-2l.66,18.21,1.47-.8v-6.62a1.94,1.94,0,1,1,1,0v7.26l-2.46,1.33.09,2.31,6.37-3.2v-4a1.94,1.94,0,1,1,1,0v4.63l-7.36,3.69.21,5.73,1-.52a2.28,2.28,0,0,1,1.1-2.52,2.17,2.17,0,0,1,3,.93,2.28,2.28,0,0,1-.91,3l.3-.16-.3.16a2.15,2.15,0,0,1-2.68-.51l-1.4.75q.11,2.92.22,5.85l8.1-4-.12-5.94,6-4.51a2,2,0,0,1,.67-2.3,1.9,1.9,0,0,1,2.71.44,2,2,0,0,1-.43,2.77,1.89,1.89,0,0,1-2.34-.05l-5.61,4.18.18,9.52L110,183v10.67l-.32.22,0,.75-.57-.38-6.64,4.59-10.21-8.12v-8l-1.68-1.15v4L82,191.4a2.27,2.27,0,0,1-.87,2.61,2.17,2.17,0,0,1-3-.64,2.3,2.3,0,0,1,.63-3.12h0c.5-.34.26-.17,0,0a2.15,2.15,0,0,1,2.72.26L89.56,185v-4.17l-5.31-3.63-14.39,9.5v-8.42l-5.17,0v-8.16l3.24-4.05-4.17-2.85-6,2.35,0,9.33L40.27,187.54l.95.65,19-13.18v-.79a2,2,0,0,1-1.42-1.92,1.94,1.94,0,1,1,2.45,1.91v1.36L42.14,188.82l4.17,2.87h5.55v-9l13-.06a1.93,1.93,0,0,1,3.8.51,1.93,1.93,0,0,1-3.8.55l-12,.05v9h-5l2.77,1.9,3.54,0v-7.09l5.5-.1a2.24,2.24,0,1,1,0,1.06l-4.47.08v7.12l-3,0,4.86,3.35,7.34-4.25a2,2,0,0,1,.92-2.21,1.91,1.91,0,0,1,2.64.75,2,2,0,0,1-.73,2.71,1.89,1.89,0,0,1-2.32-.33l-6.89,4,3.17,2.17,10.57-6.63v-5.11L83,182.25a2,2,0,0,1,.73-2.29,1.92,1.92,0,0,1,2.7.51,2,2,0,0,1-.5,2.76,1.89,1.89,0,0,1-2.34-.12l-10.77,7.61v5.15l-10.66,6.69,2.79,1.93,8.7-5.71H89.93l1.46-2.1a2.31,2.31,0,0,1-.12-2.78,2.16,2.16,0,0,1,3.06-.52,2.3,2.3,0,0,1,.51,3.14,2.17,2.17,0,0,1-2.61.77l-1.77,2.54-16.55,0-8.08,5.3,1.89,1.31,7.07-4.8,29.38,0,8.33-7V184.29l7.45-4.1v-6.75l4.8-3.65a2,2,0,0,1,.65-2.31,1.91,1.91,0,0,1,2.71.41,2,2,0,0,1-.4,2.78,1.92,1.92,0,0,1-2.35,0L121,174v6.85l-7.45,4.1v10.21l-9,7.55-29.44,0-6.47,4.4,2.6,1.81,4.44-3.17H84.9a2,2,0,1,1,0,1.06H76l-3.86,2.75,4.4,3.08H94.17l3-2.24a2.28,2.28,0,0,1,.72-2.69,2.16,2.16,0,0,1,3.07.48,2.3,2.3,0,0,1-.47,3.14h0a2.16,2.16,0,0,1-2.7-.08l-3.13,2.34-.15.1H78.05l2.07,1.45,19.11,0L115,203.28l0-16.6,8.68-4.1h5.16a2,2,0,1,1,0,1h-4.93L116,187.36v16.45L99.57,216.16H81.63L85.71,219H99.19ZM134,113.28h-7.08L114.24,88.64h-1.83l-11-17.48h8.22l0-5.31h8l10.52,8.84v6.88H134a2,2,0,1,1,0,1.06h-6.85V75.19l-9.86-8.28h-3.41v2h3.4l8.53,7.52.06,9.06,15,0a1.94,1.94,0,1,1,1.86,2.52,1.94,1.94,0,0,1-1.86-1.46l-16.06,0L124.75,77l-7.88-7h-4.05V66.91h-2.12l0,3.71h2.94L128.14,94.3a1.91,1.91,0,0,1,2.19.84,2,2,0,0,1-.6,2.74,1.91,1.91,0,0,1-2.67-.62,2,2,0,0,1,.21-2.4L113,71.68h-2.37v.53h-7.36l1.82,2.89h6.16l16.28,28.8a1.92,1.92,0,0,1,2.16.93,2,2,0,0,1-.71,2.71,1.9,1.9,0,0,1-2.64-.72,2,2,0,0,1,.29-2.39l-16-28.27h-4.91L113,87.59h1.89l12.67,24.65H134a2,2,0,0,1,1.87-1.46,2,2,0,0,1,0,4A2,2,0,0,1,134,113.28Zm-15.63,91.07V190.06l6.1-2.51h10.32a2,2,0,1,1,0,1.06H124.65l-5.27,2.16v14.1l-16,12.52,13.2,9.43h14.23V206.54a1.94,1.94,0,1,1,1,0v21.32l-15.59,0-14.62-10.45Zm9.09,19.87H121l-3.13-2.16a2.16,2.16,0,0,1-2.72.23,2.3,2.3,0,0,1-.61-3.12,2.18,2.18,0,0,1,3-.63,2.27,2.27,0,0,1,.84,2.63l2.88,2h5.13v-6.34a1.94,1.94,0,1,1,1,0Zm-15.27-6.81a1.91,1.91,0,0,1-2.71-.45,2,2,0,0,1,.44-2.77,1.88,1.88,0,0,1,2.34.06L123.43,206v-8.67a1.94,1.94,0,1,1,1,0v9.21l-11.6,8.58A2,2,0,0,1,112.18,217.41Z"></path><path class="cls-1" d="M105.72,111.22l4.56,8.52,2.27,0-4.89-10.47H96.14L94.57,106l-2.22.81,2.89,4.4Z"></path><path class="cls-1" d="M198.64,120.16l-19.73-10.63c0,.77,0,1.53,0,2.29l2,1-.27,4,3.29,1.91,3.21-2.77,8.87,4.52v11.14l8.11,5.46a2.14,2.14,0,0,1,2.7-.25,2.28,2.28,0,0,1,.63,3.12,2.15,2.15,0,0,1-3,.65h0c-.51-.34-.26-.17,0,0a2.26,2.26,0,0,1-.85-2.63L195,132.16V121.1l-7.69-3.92L184,120l-4.47-2.59.26-3.94-.92-.45c0,2,0,4,0,5.93l14.39,7.78v10.55l-10.2,8.14-4.2-2.89v3.61l2.5,2.09,29.37,0,3.09,2.09v-2.45l-2.2-1.45H195.12l-1.79-2.53a2.15,2.15,0,0,1-2.59-.78,2.29,2.29,0,0,1,.5-3.14,2.17,2.17,0,0,1,3.06.52h0c.35.51.18.25,0,0a2.28,2.28,0,0,1-.13,2.79l1.47,2.09H212l1.9,1.24v-3.48l-1.08-.67v-5.15L202,129.67a1.89,1.89,0,0,1-2.34.12,2,2,0,0,1-.5-2.76,1.92,1.92,0,0,1,2.7-.51,2,2,0,0,1,.73,2.28l11.23,7.91v5.11l.05,0v-9.8l-15.23-10Z"></path><path class="cls-1" d="M197.56,49a1.65,1.65,0,0,0,2.34.39,1.74,1.74,0,0,0,.39-2.4l.12.17-.12-.17h0a1.66,1.66,0,0,0-2.34-.4A1.75,1.75,0,0,0,197.56,49Z"></path><path class="cls-1" d="M185.06,155.05a1.75,1.75,0,0,0,.36,2.41l-.21-.16.21.16a1.66,1.66,0,0,0,2.35-.37,1.76,1.76,0,0,0-.37-2.41A1.64,1.64,0,0,0,185.06,155.05Z"></path><path class="cls-1" d="M204.69,140.12a1.65,1.65,0,0,0,2.32-.49,1.74,1.74,0,0,0-.47-2.38h0a1.64,1.64,0,0,0-2.32.49A1.74,1.74,0,0,0,204.69,140.12Z"></path><path class="cls-1" d="M197.46,39.09a2.23,2.23,0,0,1-2.2-2.25,2.1,2.1,0,0,1,.09-.5h-.88a1.27,1.27,0,0,1,.06.28,1.93,1.93,0,0,1-3.81.52h-7.21v-.8c-1.26,0-1.54.44-1.53,1.64,0,.84,0,1.68,0,2.52l28.41,0,3.48,2.91c0-1.82,0-3.63,0-5.45,0-1.28-.38-1.6-1.57-1.6-4.25,0-8.51,0-12.76,0a2.61,2.61,0,0,1,.08.5A2.22,2.22,0,0,1,197.46,39.09Z"></path><path class="cls-1" d="M102.51,197.51l5.68-3.92-1.72-1.17-4,2.06-6.74-4.77v-4.65l-2.41-1.65v6.77Z"></path><path class="cls-1" d="M176.79,90.74a1.67,1.67,0,0,0,2.19-.95,1.74,1.74,0,0,0-.92-2.24,1.66,1.66,0,0,0-2.19,1A1.73,1.73,0,0,0,176.79,90.74Z"></path><path class="cls-1" d="M102.53,193.26l3-1.52-8.75-6v3.39Z"></path><path class="cls-1" d="M43.81,66.12A2,2,0,0,1,45.24,68a1.94,1.94,0,1,1-3.87,0,2,2,0,0,1,1.42-1.92l0-4.4h-6.4V76l10,6V61.72H43.8Z"></path><path class="cls-1" d="M193.88,140.77a1.64,1.64,0,0,0-2.34-.39,1.75,1.75,0,0,0-.39,2.39h0a1.66,1.66,0,0,0,2.34.38A1.75,1.75,0,0,0,193.88,140.77Z"></path><path class="cls-1" d="M117.24,177.65l0-2.32-8.08,4c0,.95.07,1.91.1,2.87Z"></path><path class="cls-1" d="M210.76,234.34h.14v-.09Z"></path><path class="cls-1" d="M92,223.39l.13.1-.12-.1Z"></path><path class="cls-1" d="M188.71,166.82a1.72,1.72,0,1,0,1.68,1.72A1.71,1.71,0,0,0,188.71,166.82Z"></path><path class="cls-1" d="M181,149.27l-2.13-1.78c0,4.19,0,8.38,0,12.58L184,164l-5.06,3.62v10.69l35,0v-3.85l-28.92,0a2,2,0,0,1-1.87,1.46,2,2,0,0,1,0-4,2,2,0,0,1,1.87,1.45H204L210.47,162h3.4v-1.82h-4.73l-4.91,8.84H190.85a2.27,2.27,0,1,1,0-1.06h12.79l4.32-7.77H191.08l-3.28-2.43a2.16,2.16,0,0,1-2.69.07,2.29,2.29,0,0,1-.47-3.14,2.16,2.16,0,0,1,3.07-.48h0a2.29,2.29,0,0,1,.71,2.71l3,2.21,22.45,0v-2.77l-4.28-3h-8.91a2,2,0,1,1,0-1.06h9.23l4,2.82v-3.55l-3.4-2.3Z"></path><path class="cls-1" d="M197.46,38.56a1.71,1.71,0,0,0,1.68-1.72,2.6,2.6,0,0,0-.1-.5h-3.16a1.65,1.65,0,0,0-.1.5A1.7,1.7,0,0,0,197.46,38.56Z"></path><path class="cls-1" d="M140.43,91.62A1.76,1.76,0,0,0,140,94a1.65,1.65,0,0,0,2.33.47,1.63,1.63,0,0,0,.48-.5c0-.28,0-.56,0-.84a6.3,6.3,0,0,1,.09-.8,1.25,1.25,0,0,0-.09-.25A1.66,1.66,0,0,0,140.43,91.62Z"></path><path class="cls-1" d="M33.57,79.18V90.47h7.58V83.61Z"></path><path class="cls-1" d="M56.73,164.85l6-2.34-3.81-2.61L54,162v9.83L42.16,179.7a2,2,0,0,1-.78,2.26,1.92,1.92,0,0,1-2.69-.57,2,2,0,0,1,.57-2.75,1.89,1.89,0,0,1,2.33.17l11.35-7.61v-10L60.76,158c3.16-1.94,6.31-3.85,9.48-5.72a1.94,1.94,0,0,1,.43-.27c-.68.28-.13.05.17-.08q5.88-3.45,11.84-6.67a2,2,0,0,1-.21-.85,2,2,0,0,1,1.94-2,1.89,1.89,0,0,1,1.68,1.07c.45-.23.89-.47,1.34-.69l-4-3.71-25.62,0V123c-.64.36-1.29.71-1.93,1.08v15.23a1.94,1.94,0,1,1-1,0V124.62l-2.59,1.51v19.52a1.94,1.94,0,1,1-1,0V126.76q-1.89,1.14-3.76,2.3v5.66H38.66c-4.38,2.91-8.72,5.9-13,9a6.33,6.33,0,0,0-2,2.45l-.08,4.85,11.23,5.5v11.82l3.44,1.75L44,166V160.3l-1.92-1.08a1.91,1.91,0,0,1-2.32.36,2,2,0,0,1-.77-2.7,1.92,1.92,0,0,1,2.63-.79,2,2,0,0,1,1,2.2l2.46,1.38v6.9l-6.73,4.78L33.77,169v-11.8l-10.22-5,0,2.33,8.31,4.67v10.73l6.44,4.44L47.47,167v-9.39l-17-9.2a2.15,2.15,0,0,1-2.67.5,2.28,2.28,0,0,1-.92-3,2.18,2.18,0,0,1,3-.94l-.31-.16.31.16A2.28,2.28,0,0,1,31,147.5L48.49,157v10.54l-10.2,8.14-7.51-5.18V159.83L23,155.47q-.06,6.92-.19,13.83l6.55,3.58v6.85l4.4,3.33a1.88,1.88,0,0,1,2.34,0,2,2,0,0,1,.7,2.13l2.55,1.75L56.7,174.35Zm8.17-15v-7.39h6.47l3.14,2.16a2.16,2.16,0,0,1,2.71-.23,2.29,2.29,0,0,1,.61,3.12,2.16,2.16,0,0,1-3,.63,2.28,2.28,0,0,1-.85-2.63l-2.88-2H65.93v6.34a2,2,0,0,1,1.42,1.91,1.94,1.94,0,1,1-2.46-1.91ZM34.7,138.66a2.15,2.15,0,0,1,2.73.27l3.13-2.16,6.47.06-.06,7.4a2,2,0,1,1-2.46,1.89,2,2,0,0,1,1.43-1.9l.06-6.34-5.13,0-2.89,2a2.28,2.28,0,0,1-.87,2.6,2.17,2.17,0,0,1-3-.64A2.29,2.29,0,0,1,34.7,138.66Zm12,14.41-9.64-5.54a1.89,1.89,0,0,1-2.32.33,2,2,0,0,1-.74-2.7,1.92,1.92,0,0,1,2.64-.76,2,2,0,0,1,.93,2.21L47,152H55.7a2.25,2.25,0,1,1,0,1.06Z"></path><path class="cls-1" d="M211.93,234.33c1.45-.06,2-.53,2-2.07l-2,1.31Z"></path><path class="cls-1" d="M26.85,77.5v9.13a2,2,0,0,1,1.42,1.91,2,2,0,0,1-1.69,1.94h6l0-21.35Z"></path><path class="cls-1" d="M61.81,189.76h0C61.58,189.76,61.35,189.76,61.81,189.76Z"></path><path class="cls-1" d="M75.08,147.71a1.65,1.65,0,0,0,2.32-.48,1.75,1.75,0,0,0-.46-2.39,1.66,1.66,0,0,0-2.33.48,1.75,1.75,0,0,0,.46,2.39Z"></path><path class="cls-1" d="M61.81,189.75h0c.46,0,.23,0,0,0a1.72,1.72,0,1,0-1.7-1.7A1.7,1.7,0,0,0,61.81,189.75Z"></path><path class="cls-1" d="M36.82,142a1.75,1.75,0,0,0,.49-2.38,1.67,1.67,0,0,0-2.33-.5,1.76,1.76,0,0,0-.48,2.39A1.65,1.65,0,0,0,36.82,142Z"></path><path class="cls-1" d="M100.17,210.88a1.75,1.75,0,0,0,.36-2.41,1.65,1.65,0,0,0-2.35-.37,1.77,1.77,0,0,0-.36,2.41A1.66,1.66,0,0,0,100.17,210.88Z"></path><path class="cls-1" d="M47.44,61.72l0,28.75h3.76l0-28.75Z"></path><path class="cls-1" d="M179.6,138.09l3.44,1.75,5.79-4.11V130l-1.91-1.07a1.91,1.91,0,0,1-2.32.35,2,2,0,0,1-.77-2.69,1.91,1.91,0,0,1,2.63-.79,2,2,0,0,1,1,2.2l2.45,1.38v6.9l-6.74,4.78-4.21-2.15v2.32l4.15,2.85,9.22-7.34v-9.4l-13.36-7.23c0,1.94,0,3.88,0,5.81l.68.34Z"></path><path class="cls-1" d="M35.35,76.6V61.72H32.46l-9.6,14.88V90.48H26.1a1.94,1.94,0,0,1-1.69-1.93,2,2,0,0,1,1.42-1.92V77.17l7.74-11.42V78l8.62,5v7.48h4.24V83.22Z"></path><path class="cls-1" d="M94.42,196.2a1.75,1.75,0,0,0-.39-2.4,1.66,1.66,0,0,0-2.34.4h0a1.76,1.76,0,0,0,.39,2.4A1.67,1.67,0,0,0,94.42,196.2Z"></path><path class="cls-1" d="M217,74.6a1.66,1.66,0,0,0,2.27-.72,1.75,1.75,0,0,0-.7-2.33,1.67,1.67,0,0,0-2.27.72A1.75,1.75,0,0,0,217,74.6Z"></path><path class="cls-1" d="M186.76,49.62a1.66,1.66,0,0,0-2.33.5,1.74,1.74,0,0,0,.47,2.37h0a1.66,1.66,0,0,0,2.33-.49A1.76,1.76,0,0,0,186.76,49.62Z"></path><path class="cls-1" d="M178.91,161.4v4.94l3.31-2.37Z"></path><path class="cls-1" d="M57.83,154.26a1.73,1.73,0,1,0-1.68-1.72A1.71,1.71,0,0,0,57.83,154.26Z"></path><path class="cls-1" d="M212.46,100a1.74,1.74,0,0,0,.93,2.24,1.65,1.65,0,0,0,.48.1V98.9A1.71,1.71,0,0,0,212.46,100Z"></path><path class="cls-1" d="M117.27,219a1.66,1.66,0,0,0-2.33.48,1.76,1.76,0,0,0,.47,2.39,1.66,1.66,0,0,0,2.33-.48,1.75,1.75,0,0,0-.46-2.38Z"></path><path class="cls-1" d="M75.15,90.46l0-24.74,7.75,11.41v9.46a2,2,0,0,1,1.42,1.91,2,2,0,0,1-1.75,2h3.29V76.55L76.27,61.74H73.72l0,28.72Z"></path><path class="cls-1" d="M93.59,220.07H87.22c1.08.75,2.16,1.5,3.23,2.26h1.89l9,7.29a1.89,1.89,0,0,1,2.35,0,2,2,0,0,1,.67,2.05,23.93,23.93,0,0,0,12.46,2.81c.46,0,.93,0,1.39-.06h-3.83Z"></path><path class="cls-1" d="M72.71,90.46l0-28.72H69.9l0,28.72Z"></path><path class="cls-1" d="M98.48,62.92h0a1.68,1.68,0,1,0,2.9-1.17H98.92a1.73,1.73,0,0,0-.44,1.17Z"></path><path class="cls-1" d="M98.48,62.91h0Z"></path><path class="cls-1" d="M86.88,90.45h1.77V75.33L80.15,61.74H77.51l9.36,14.49Z"></path><path class="cls-1" d="M131.75,73.5l.09.24a1.82,1.82,0,0,1-.09-.24,1.67,1.67,0,0,0,2.19,1,1.75,1.75,0,0,0,.92-2.25,1.66,1.66,0,0,0-2.19-.94A1.73,1.73,0,0,0,131.75,73.5Z"></path><path class="cls-1" d="M131.75,73.5Z"></path><path class="cls-1" d="M140.35,170.24l-4.55-2.33V156.1l-10.21-5,0,2.33,8.32,4.67v10.73l6.43,4.44,2.56-2.05v-2.76Z"></path><path class="cls-1" d="M215.83,89.8V83.18l-24.06-13V68.29L182,61.86v4.93l26.22,15.52a1.91,1.91,0,0,1,2.33-.31,2,2,0,0,1,.71,2.72,1.91,1.91,0,0,1-2.65.72,2,2,0,0,1-.9-2.21L182,68v1.37c0,.47.28,1.12-.26,1.38s-1-.28-1.42-.65c-.69-.64-1.33-1.33-2-2a25.51,25.51,0,0,0-2.08-1.85v2.13l22.64,14.54a1.88,1.88,0,0,1,2.33-.22,2,2,0,0,1,.62,2.74,1.92,1.92,0,0,1-2.68.63,2,2,0,0,1-.82-2.26L175.46,69.13l-.24-.16V66l-3.62,0v2.17h3V72.3l6.79,8.08,9.38.05.06,16.46a2,2,0,0,1,1.43,1.91,1.94,1.94,0,1,1-2.46-1.9l0-15.42-8.83,0-7.35-8.74V69.21h-2v3.5l8.09,10.09H187v7a1.94,1.94,0,1,1-1,0v-6h-6.71l-8.64-10.77V64.93l3.79,0a20.12,20.12,0,0,0-11.2-3.18h-4.59l8.55,5.93V69a1.94,1.94,0,1,1-1,0v-.8l-9.35-6.49H154.5l9.13,6.59,0,9.33,7,2.73a1.9,1.9,0,0,1,2.25-.67A2,2,0,0,1,174,82.27a1.93,1.93,0,0,1-2.5,1.15,2,2,0,0,1-1.24-2l-7.64-3,0-9.51-9.89-7.14h-5a2,2,0,0,1,.31,1.81l11.82,7.9v9.82l15.74,6.6a2.17,2.17,0,0,1,2.63-.81l-.31-.13.31.13A2.28,2.28,0,0,1,179.46,90a2.18,2.18,0,0,1-2.86,1.24,2.24,2.24,0,0,1-1.35-2.37L158.85,82V72l-11.36-7.59a1.9,1.9,0,0,1-2.34.18,2,2,0,0,1-.57-2.75l.12-.12h-3.15s.07.08.1.13a2,2,0,0,1-.73,2.7,1.91,1.91,0,0,1-2.64-.75,2,2,0,0,1,.1-2.07h-6l8.9,5-.26,4,3.29,1.91,3.21-2.77,8.87,4.51V85.49l8.83,4.07a2.16,2.16,0,0,1,2.7-.24,2.26,2.26,0,0,1,.95,2.06q2.85.38,5.7.84c3.6.6,4.46,1.63,4.46,5.44,0,3.37-.05,6.73-.06,10.09v.59l20.76,11.19v1.93l11.16,7.34v-5l-27.61-16.33a1.9,1.9,0,0,1-2.33.3,2,2,0,0,1-.71-2.71,1.92,1.92,0,0,1,2.65-.73,2,2,0,0,1,.9,2.22l28.13,16.64v6.32l2,1.33v-10.3l-21.31-13.69a1.92,1.92,0,0,1-2.34.22,2,2,0,0,1-.61-2.74,1.91,1.91,0,0,1,2.67-.63,2,2,0,0,1,.82,2.25l20.77,13.35v-5.33L210,109.37l-9.38-.05-.06-16.47A2,2,0,1,1,203,90.93a2,2,0,0,1-1.42,1.92l.06,15.42,8.83,0,3.36,4v-2.73l-2.12-2.65h-7.26v-7a1.94,1.94,0,1,1,1,0v6h6.7l1.64,2v-5.1a1.8,1.8,0,0,1-.67-.15h0a2.26,2.26,0,0,1-1.2-2.93,2.18,2.18,0,0,1,1.88-1.38V94.15a5.49,5.49,0,0,1,.65-3.08A2,2,0,0,1,215.83,89.8Z"></path><path class="cls-1" d="M46.45,129.69c-2.07,1.3-4.14,2.63-6.19,4h6.2Z"></path><path class="cls-1" d="M117.36,219.05Z"></path><path class="cls-1" d="M193.16,187.34a1.75,1.75,0,0,0-.34,2.41,1.65,1.65,0,0,0,2.35.34,1.76,1.76,0,0,0,.34-2.41A1.65,1.65,0,0,0,193.16,187.34Z"></path><path class="cls-1" d="M116.12,146.27a1.76,1.76,0,0,0-.47-2.39,1.65,1.65,0,0,0-2.33.48,1.75,1.75,0,0,0,.47,2.38A1.65,1.65,0,0,0,116.12,146.27Z"></path><path class="cls-1" d="M54.13,84.28l0-22.55H52.23l0,28.74h6.4Z"></path><path class="cls-1" d="M116.19,115.08a1.67,1.67,0,0,0,2.27.72,1.75,1.75,0,0,0,.7-2.33,1.65,1.65,0,0,0-2.27-.71A1.74,1.74,0,0,0,116.19,115.08Z"></path><path class="cls-1" d="M131.64,144.32a1.66,1.66,0,0,0-2.27.72,1.75,1.75,0,0,0,.7,2.33,1.66,1.66,0,0,0,2.27-.73A1.74,1.74,0,0,0,131.64,144.32Z"></path><path class="cls-1" d="M59.94,90.46h5.72l0-28.73H61.16l0,18.93a2,2,0,0,1,1.42,1.91,1.94,1.94,0,1,1-2.45-1.91l0-18.93h-5v22.2Z"></path><path class="cls-1" d="M184.65,233.8a1.91,1.91,0,0,1,2.32.35l1.92-1.08v-5.72l-5.8-4.1L179.66,225v8.65c.55.56,1.45.76,2.87.76H184A1.76,1.76,0,0,1,184.65,233.8Z"></path><path class="cls-1" d="M113.79,146.74l.15.1Z"></path><path class="cls-1" d="M178.91,207c0,2.88,0,5.75,0,8.63l2.17-1.83h29.44l3.35-2.28V208l-3.92,2.8h-9.23a2,2,0,1,1,0-1.06h8.91l4.24-3v-2.8l-22.42,0-3,2.23a2.3,2.3,0,0,1-.71,2.7,2.16,2.16,0,0,1-3.07-.48,2.28,2.28,0,0,1,.46-3.14h0c.49-.37.25-.19,0,0a2.15,2.15,0,0,1,2.69.09L191,203l.14-.11h22.75v-1.45l-27.48,0Z"></path><path class="cls-1" d="M70.35,177.26h.52v7.53l2.81-1.86v-6.31l5.16-3.07-3.17-2.16-5.33,3.43Z"></path><path class="cls-1" d="M178.91,192.23v3.22l5.08,3.63-5.08,4v2.66l7.14-5.37h27.82v-2.86l-27.44,0Z"></path><path class="cls-1" d="M186.75,196.44h3.45l-11.29-7.8V191Z"></path><path class="cls-1" d="M74.72,182.26l8.58-5.67-3.49-2.38-5.09,3Z"></path><path class="cls-1" d="M141.42,224.22a1.91,1.91,0,0,1-2.74.14,2,2,0,0,1-.13-2.81,1.9,1.9,0,0,1,2.31-.43l2-2.26q0-10.67,0-21.33l-6.77,7.62v26.26l-21,0L98.87,220.07H95.42l19.28,13.34,21.59,0a1.93,1.93,0,0,1,3.8.53,1.84,1.84,0,0,1-.1.52l.78,0c1.78.08,2.1-.53,2.1-2.21V220.43l-1.25,1.4A2,2,0,0,1,141.42,224.22Z"></path><path class="cls-1" d="M113.79,146.74Z"></path><path class="cls-1" d="M235,83.28c0-2.08,0-4.16,0-6.25,0-4.44-.1-8.87-.1-13.31,0-1.51-.54-2-2.09-2-2.3,0-4.61.06-6.91.06l1,.55v6.84l4.39,3.33a1.88,1.88,0,0,1,2.34,0,2,2,0,0,1,.41,2.78,1.91,1.91,0,0,1-2.71.41,2,2,0,0,1-.66-2.31l-4.8-3.64V63l-2.16-1.19h-5l5.56,3.12L224,74.39l5.62,4.18a1.88,1.88,0,0,1,2.34-.06,2,2,0,0,1,.43,2.77,1.89,1.89,0,0,1-2.7.44,2,2,0,0,1-.68-2.3L223,74.92l.11-5.94-11.23-5.5V51.66l-3.43-1.76L202.62,54v5.72l1.92,1.08a1.91,1.91,0,0,1,2.32-.36,2,2,0,0,1,.76,2.7,1.9,1.9,0,0,1-2.62.78,2,2,0,0,1-1-2.2l-2.45-1.37v-6.9l6.73-4.78L212.87,51v11.8l10.22,5,0-2.33-6.71-3.77c-2.44-.1-2.56-.7-2.56-4.18,0-2.7,0-5.41,0-8.11l-5.48-3.78L199.17,53v9.39l17,9.2a2.17,2.17,0,0,1,2.67-.51,2.3,2.3,0,0,1,.92,3,2.18,2.18,0,0,1-3,.93l.3.17-.3-.17a2.26,2.26,0,0,1-1.1-2.53L198.15,63V52.48l10.2-8.13,5.52,3.81c0-1.14,0-2.27,0-3.41L210,41.53l-28,0c0,.61,0,1.21,0,1.81h14.32l1.78,2.54a2.16,2.16,0,0,1,2.6.77,2.29,2.29,0,0,1-.51,3.14,2.17,2.17,0,0,1-3.06-.51c.18.24.35.5,0,0s-.18-.26,0,0a2.29,2.29,0,0,1,.13-2.78l-1.47-2.09H182V54.84l7.43,5.23a1.91,1.91,0,0,1,2.34-.12,2,2,0,0,1,.5,2.76,1.9,1.9,0,0,1-2.69.52,2,2,0,0,1-.73-2.29L182,56.12c0,1.49,0,3,0,4.49l10.8,7.1v1.88l24.06,13V89.8a1.64,1.64,0,0,1,.3.14c.12,0,.23,0,.35,0l9.9.15h0a2,2,0,1,1,2.46-1.91,2,2,0,0,1-1.43,1.91v0l3.38.05a2.74,2.74,0,0,0,2.59-1V83.68ZM221.38,90a2,2,0,0,1-.52-3.89v-4l-10.32-5.16.27-4L207.52,71l-3.22,2.78-8.87-4.52V58.15l-8.11-5.45a2.16,2.16,0,0,1-2.7.24,2.29,2.29,0,0,1-.63-3.11,2.16,2.16,0,0,1,3-.65h0a2.29,2.29,0,0,1,.86,2.64l8.57,5.76V68.65l7.69,3.91,3.25-2.8,4.48,2.6-.27,3.93,10.28,5.14v4.64a2,2,0,0,1-.51,3.89Z"></path><path class="cls-1" d="M206.59,225.81a1.75,1.75,0,0,0,.48-2.38,1.66,1.66,0,0,0-2.33-.49h0a1.75,1.75,0,0,0-.48,2.38A1.65,1.65,0,0,0,206.59,225.81Z"></path><path class="cls-1" d="M191.2,220.31a1.75,1.75,0,0,0,.39,2.4,1.67,1.67,0,0,0,2.34-.39h0a1.75,1.75,0,0,0-.39-2.39A1.65,1.65,0,0,0,191.2,220.31Z"></path><path class="cls-1" d="M70,119.77Z"></path><path class="cls-1" d="M112.7,171.59a1.73,1.73,0,0,0,.69-2.32,1.66,1.66,0,0,0-2.27-.72,1.75,1.75,0,0,0-.69,2.33A1.65,1.65,0,0,0,112.7,171.59Z"></path><path class="cls-1" d="M67.62,120.25a1.65,1.65,0,0,0,2.33-.48h0a1.75,1.75,0,0,0-.46-2.38,1.58,1.58,0,0,0-.7-.26l-1.68.85A1.74,1.74,0,0,0,67.62,120.25Z"></path><path class="cls-1" d="M79,190.69a1.76,1.76,0,0,0-.48,2.39,1.67,1.67,0,0,0,2.33.49,1.76,1.76,0,0,0,.48-2.39A1.66,1.66,0,0,0,79,190.69Z"></path><path class="cls-1" d="M80.44,88.51a2,2,0,0,1,1.42-1.92V77.46l-5.69-8.37,0,21.37h6A1.94,1.94,0,0,1,80.44,88.51Z"></path><path class="cls-1" d="M181.45,214.88,178.91,217v3.61l4.24-2.93,10.21,8.12v8.54H195v-3.43l8.55-5.8a2.28,2.28,0,0,1,.87-2.61,2.16,2.16,0,0,1,3,.64,2.29,2.29,0,0,1-.63,3.11h0a2.16,2.16,0,0,1-2.73-.25l-8.07,5.48v2.86H199a1.88,1.88,0,0,1,3.06-.94l10.78-7.61v-5.15l1-.64v-3.48L212,217.73H195.69l-1.46,2.1a2.28,2.28,0,0,1,.12,2.78,2.16,2.16,0,0,1-3,.52,2.28,2.28,0,0,1-.51-3.14,2.16,2.16,0,0,1,2.61-.78l1.76-2.54h16.55l2.15-1.41c0-.82,0-1.64,0-2.46l-3,2.06Z"></path><path class="cls-1" d="M68.89,90.46l0-28.72h-2.2l0,28.73Z"></path><path class="cls-1" d="M185.45,205.63a1.75,1.75,0,0,0-.36,2.41,1.66,1.66,0,0,0,2.35.37,1.76,1.76,0,0,0,.36-2.41A1.66,1.66,0,0,0,185.45,205.63Z"></path><path class="cls-1" d="M153.15,79.41a1.68,1.68,0,1,0-1.68,1.72A1.7,1.7,0,0,0,153.15,79.41Z"></path><path class="cls-1" d="M192,196.43h21.83v-2.26H193.28l-9-7.28a1.89,1.89,0,0,1-2.35,0,2,2,0,0,1-.31-2.79,1.9,1.9,0,0,1,2.72-.33,2,2,0,0,1,.58,2.33l8.72,7.06,20.23,0v-4.59h-7.36a2,2,0,1,1,0-1.06h7.36v-5.11H203.32l-7.14,5.49a2.29,2.29,0,0,1-.7,2.68,2.16,2.16,0,0,1-3.07-.46,2.29,2.29,0,0,1,.44-3.15,2.17,2.17,0,0,1,2.72.08l7.41-5.7h10.89v-1.93l-35,0c0,2.66,0,5.32,0,8Z"></path><path class="cls-1" d="M183.11,219l-4.2,2.91c0,.77,0,1.54,0,2.31l4.27-2.18,6.73,4.77v6.89l-1.2.68,3.62,0v-8Z"></path><path class="cls-1" d="M97.48,121.93H83.73l-6.56-8.81c-.78.35-1.57.69-2.34,1.05a2.23,2.23,0,0,1-.25.45l8.07,11.46h8.46A1.94,1.94,0,0,1,93,124.62a2,2,0,0,1,0,4,1.94,1.94,0,0,1-1.86-1.45h-9l-8.39-11.89a1.94,1.94,0,0,1-1.26,0c-1,.49-2,1-3,1.54a1.73,1.73,0,0,1,.34.14,2.28,2.28,0,0,1,.61,3.12,2.18,2.18,0,0,1-2.57.86l-1.94,3v5.26h6.18a2,2,0,1,1,0,1.06H64.85v-6.63L67,120.35a2.26,2.26,0,0,1-.53-2c-1.37.7-2.74,1.39-4.1,2.12v13.2H82.1A1.94,1.94,0,0,1,84,132.18a2,2,0,1,1-1.86,2.52H61.3V121l-2.44,1.36V138l25,0,4.56,4.26c3.67-1.85,7.4-3.57,11.19-5.19v-9.73Z"></path><path class="cls-1" d="M202.66,234.26s0,.07,0,.1q3.08,0,6.15,0l5.1-3.36c0-2.8,0-5.61,0-8.42v3.76Z"></path><path class="cls-1" d="M84.24,120.89H98.18l2.44,6.25v9.48c1.14-.48,2.3-.92,3.46-1.37a2,2,0,0,1,.36-3.66v-5.06l-3.64-8.07-16,0L80,111.84l-1.88.85Z"></path><path class="cls-1" d="M178.91,196.74v5l3.33-2.6Z"></path><path class="cls-1" d="M97.56,80.58a1.65,1.65,0,0,0-2.33-.49,1.76,1.76,0,0,0-.48,2.38,1.67,1.67,0,0,0,2.33.49A1.75,1.75,0,0,0,97.56,80.58Z"></path><path class="cls-1" d="M65.69,170.5V174h2v-3.49l2.45-2.92-1.37-.93Z"></path><path class="cls-1" d="M94.75,82.47Z"></path><path class="cls-1" d="M205.2,173.4h8.67V163.1h-2.81Z"></path><path class="cls-1" d="M68.71,175.06h-3v2.17l3.62,0v-3l5.42-3.5L71,168.19l-2.28,2.72Z"></path><path class="cls-1" d="M167.58,89.76h0a1.66,1.66,0,0,0-2.32.5,1.84,1.84,0,0,0-.25.7c1.11.11,2.21.23,3.31.37A1.75,1.75,0,0,0,167.58,89.76Z"></path><path class="cls-1" d="M70.83,151.91l-.16.07.07,0Z"></path><path class="cls-1" d="M105,135.48a1.93,1.93,0,0,0,1.8-1.3c-.9.34-1.79.7-2.68,1.06A1.9,1.9,0,0,0,105,135.48Z"></path><path class="cls-1" d="M104,232.45a2.18,2.18,0,0,0,.35-.74,31.33,31.33,0,0,1-3.77-2.29c-2.82-2-5.66-3.95-8.49-5.93l8.6,7"></path><path class="cls-1" d="M118.21,234.46h18.08a2,2,0,0,0,1.87,1.46,1.92,1.92,0,0,0,1.83-1.47C132.73,234.12,125.47,234.11,118.21,234.46Z"></path><path class="cls-1" d="M70.84,151.9h0C71,151.82,71,151.84,70.84,151.9Z"></path><polygon class="cls-1" points="100.48 211.3 100.48 211.3 100.47 211.3 100.48 211.3"></polygon><polygon class="cls-1" points="78.75 190.25 78.75 190.25 78.76 190.25 78.75 190.25"></polygon><path class="cls-1" d="M108.93,182.33v10.73l-.75.53.92.63.54-.37c-.14-3.91-.29-7.79-.43-11.68Z"></path><path class="cls-1" d="M147.27,61.28a1.89,1.89,0,0,0-2.57.46h3A2.05,2.05,0,0,0,147.27,61.28Z"></path><path class="cls-1" d="M218.29,91.71a2,2,0,0,0-1.13-1.77,2.93,2.93,0,0,0-2.64,1.13,2,2,0,0,0-.11.65"></path><path class="cls-1" d="M215.85,49.52l-2-1.36v1.27l1,.66V60.82l1.61.9c.42,0,.89,0,1.46,0h.73l-2.77-1.55Z"></path><path class="cls-1" d="M135.33,72Z"></path><path class="cls-1" d="M71.5,114.55a1.93,1.93,0,0,0,1,.72c.78-.38,1.56-.73,2.35-1.09"></path><path class="cls-1" d="M82.38,90.49a1.16,1.16,0,0,0,.18,0h-.37A1.29,1.29,0,0,0,82.38,90.49Z"></path><path class="cls-1" d="M66.73,117.57a2.18,2.18,0,0,0-.31.76l.69-.35a.61.61,0,0,1,0-.12,1.64,1.64,0,0,1,1.63-.73l.64-.32A2.13,2.13,0,0,0,66.73,117.57Z"></path><polygon class="cls-1" points="97.99 80.29 97.99 80.29 97.99 80.29 97.99 80.29"></polygon><polygon class="cls-1" points="115.74 115.33 115.74 115.33 115.74 115.33 115.74 115.33"></polygon><path class="cls-1" d="M38.39,120.09c-.68-1,.67,1,0,0Z"></path><polygon class="cls-1" points="185.14 205.21 185.14 205.21 185.15 205.2 185.14 205.21"></polygon><path class="cls-1" d="M202.67,234.36l-2.48,0H199"></path><path class="cls-1" d="M196.07,234.34h-1"></path><path class="cls-1" d="M193.37,234.35h-1"></path><path class="cls-1" d="M188.72,234.37l-4.7,0"></path><path class="cls-1" d="M179.66,233.66c-.55-.57-.74-1.5-.75-3,0-2.15,0-4.31,0-6.47l-.28.15"></path><path class="cls-1" d="M210.76,234.34c-.65,0-1.29,0-1.94,0"></path><path class="cls-1" d="M211.93,234.33h-1"></path><path class="cls-1" d="M215.77,229.77,213.92,231v1.12c0,.06,0,.09,0,.14l.84-.55"></path><path class="cls-1" d="M142.85,171.22v1.34"></path><path class="cls-1" d="M142.85,151.73v1.2"></path><path class="cls-1" d="M142.85,167.18v1.28"></path></g><g><g><path class="cls-1" d="M281.56,75.51c-4.71-.63-9.31,2.24-11.3,7.15-.33.82-.67,1.14-1.56,1.14q-17.33,0-34.63,0a0,0,0,0,1,0,0,19.12,19.12,0,0,1,0,3.12,16.23,16.23,0,0,1,.3,2.51q17.15,0,34.29,0a1.46,1.46,0,0,1,1.6,1.1c2,4.88,6.49,7.75,11.09,7.18,5.31-.65,8.9-4.2,9.88-9.77v-2.7C290.33,79.84,286.72,76.2,281.56,75.51ZM281,91.87a5.46,5.46,0,0,1-5.23-5.52A5.31,5.31,0,1,1,281,91.87Z"></path><path class="cls-1" d="M266.79,46.08a10.37,10.37,0,0,0-8.07-8.28,10.18,10.18,0,0,0-11,3.82c-2.83,3.57-3.14,7.6-1.41,11.79.34.83.77,1.41-.12,2.28-3.09,3-6.07,6.16-9.09,9.26a2.12,2.12,0,0,1-1.63.74h-.63a18.55,18.55,0,0,1-.15,3.94,16,16,0,0,1,.18,1.68h1.5a5.26,5.26,0,0,0,4.23-1.84c3.05-3.25,6.23-6.36,9.3-9.6a2.24,2.24,0,0,1,2.82-.72,10.05,10.05,0,0,0,10.87-2.34A10.7,10.7,0,0,0,266.79,46.08Zm-10.68,8a5.47,5.47,0,0,1-5.24-5.52,5.31,5.31,0,1,1,5.24,5.52Z"></path></g><g><path class="cls-1" d="M245.11,157.19a2.06,2.06,0,0,1,2.27,1.58,10.74,10.74,0,0,0,14.6,5.68,11.24,11.24,0,0,0,6.17-11.54,11.1,11.1,0,0,0-9.41-9.63,10.83,10.83,0,0,0-11.33,6.51c-.4.9-.53,1.78-1.95,1.77-10.67-.05-21.35,0-32,0v5.64C224,157.21,234.56,157.23,245.11,157.19Zm12.15-8.27a5.42,5.42,0,1,1-5.29,5.49A5.51,5.51,0,0,1,257.26,148.92Z"></path><path class="cls-1" d="M229.18,202.09a2.59,2.59,0,0,1,2.33,1.16q4.77,6.33,9.65,12.56a2.3,2.3,0,0,1,.35,2.93,10.78,10.78,0,0,0,.69,11.34,10.22,10.22,0,0,0,9.71,4.83,10.37,10.37,0,0,0,9.48-7.09,10.76,10.76,0,0,0-2.18-11.66c-3.11-3.46-7.06-4.27-11.39-3a1.62,1.62,0,0,1-2.14-.67c-3.53-4.66-7.16-9.25-10.65-13.94a4.58,4.58,0,0,0-4.07-2.06c-5.84,0-11.68,0-17.52,0v5.57C218.69,202.1,223.94,202.12,229.18,202.09Zm22,16.2a5.43,5.43,0,1,1-5.36,5.36A5.4,5.4,0,0,1,251.22,218.29Z"></path><path class="cls-1" d="M283.28,143.37a2.27,2.27,0,0,1-3-.71c-11-11.34-22.07-22.6-33.07-33.94a5.37,5.37,0,0,0-4.25-1.79c-9.56,0-19.12,0-28.68,0-.29.16-.55.36-.85.51v5.16q14.28,0,28.56,0a2.52,2.52,0,0,1,2,.81q16.41,16.85,32.86,33.64a1.6,1.6,0,0,1,.43,2.12,10.59,10.59,0,0,0-.6,7.06,10.75,10.75,0,0,0,11.45,8.46c5.06-.24,9-4.2,9.94-9.87v-2.32C296.88,144.93,290,140.58,283.28,143.37Zm3.5,15.53a5.41,5.41,0,0,1-5.13-5.51,5.21,5.21,0,1,1,5.13,5.51Z"></path><path class="cls-1" d="M215.57,135a1.94,1.94,0,0,1,2.16,1.43,10.63,10.63,0,0,0,12.2,6.35,11.21,11.21,0,0,0-.07-21.81,10.76,10.76,0,0,0-12.37,7c-.36,1-.71,1.39-1.8,1.37-.75,0-1.5,0-2.25,0V135C214.15,135,214.86,135.05,215.57,135Zm12-8.52a5.42,5.42,0,1,1-5.28,5.45A5.38,5.38,0,0,1,227.6,126.52Z"></path><path class="cls-1" d="M227.85,179.78a2.08,2.08,0,0,1,2.32,1.52,10.64,10.64,0,0,0,12.64,6.46,11.2,11.2,0,0,0-.62-21.76,10.79,10.79,0,0,0-12.06,6.69,1.85,1.85,0,0,1-2,1.4c-4.89,0-9.77,0-14.66,0v5.68C218.24,179.78,223,179.81,227.85,179.78Zm12.33-8.23a5.4,5.4,0,0,1,5.3,5.44,5.33,5.33,0,1,1-10.66-.06A5.39,5.39,0,0,1,240.18,171.55Z"></path></g></g></g></svg>