<svg version="1.2" xmlns="http://www.w3.org/2000/svg" viewBox="0 0 1907 200" width="1907" height="200">
	<title>RED_MAIN_v1-svg</title>
	<style>
		.s0 { fill: #a30000 } 
		.s1 { fill: #ffffff } 
	</style>
	<path id="Layer" class="s0" d="m1 0.3h1905.5v199.4h-1905.5z"/>
	<path id="The First Workshop on  Bangla La" class="s1" aria-label="The First Workshop on 
Bangla Language Processing"  d="m653.2 40.1h31.5v5h-12.9v35.9h-5.7v-35.9h-12.9zm42.6 40.9h-5.5v-44.9l5.5-0.9v15.7q1.6-0.6 3.3-0.9 1.7-0.4 3.4-0.4 3.7 0 6.1 1.1 2.4 1 3.9 2.9 1.4 1.8 2 4.4 0.6 2.6 0.6 5.7v17.3h-5.5v-16.1q0-2.8-0.4-4.8-0.3-2-1.2-3.3-0.9-1.2-2.4-1.7-1.5-0.6-3.6-0.6-0.9 0-1.9 0.1-0.9 0.1-1.8 0.3-0.8 0.1-1.5 0.3-0.7 0.2-1 0.3zm26.5-15.3q0-4.1 1.2-7.1 1.2-3.1 3.1-5.1 2-2 4.5-3 2.5-1 5.2-1 6.2 0 9.5 3.9 3.3 3.8 3.3 11.8 0 0.3 0 0.9 0 0.5-0.1 1h-21q0.4 4.8 2.8 7.3 2.4 2.4 7.6 2.4 2.9 0 4.8-0.4 2-0.6 3-1l0.8 4.6q-1 0.5-3.6 1.1-2.4 0.6-5.6 0.6-4 0-7-1.2-2.9-1.2-4.8-3.4-1.9-2.1-2.8-5-0.9-2.9-0.9-6.4zm5.9-3h15.2q0-3.7-1.9-6.1-1.9-2.4-5.3-2.4-1.9 0-3.3 0.7-1.4 0.8-2.4 1.9-1 1.2-1.6 2.8-0.6 1.5-0.7 3.1zm48.5 18.3h-5.7v-40.9h24.6v4.9h-18.9v12.3h16.8v4.8h-16.8zm31.1-30.6v30.6h-5.5v-30.6zm-2.8-5.6q-1.4 0-2.5-0.9-1-1-1-2.7 0-1.6 1-2.6 1.1-1 2.5-1 1.5 0 2.5 1 1.1 1 1.1 2.6 0 1.7-1.1 2.7-1 0.9-2.5 0.9zm23.6 4.9q0.7 0 1.6 0.1 0.9 0.1 1.8 0.3 0.9 0.1 1.6 0.3 0.8 0.1 1.1 0.2l-0.9 4.8q-0.7-0.3-2.2-0.5-1.5-0.4-3.8-0.4-1.6 0-3.1 0.4-1.5 0.2-2 0.4v25.7h-5.4v-29.3q1.9-0.7 4.8-1.3 2.9-0.7 6.5-0.7zm18.6 27.4q3.3 0 4.9-0.9 1.7-0.9 1.7-2.8 0-2-1.6-3.2-1.6-1.2-5.3-2.7-1.7-0.7-3.4-1.4-1.6-0.7-2.8-1.7-1.1-1.1-1.9-2.5-0.7-1.4-0.7-3.4 0-4.1 3.1-6.5 3-2.4 8.2-2.4 1.2 0 2.5 0.2 1.3 0.1 2.5 0.3 1.1 0.2 1.9 0.4 0.9 0.3 1.4 0.5l-1 4.7q-0.9-0.5-2.8-1-1.9-0.5-4.5-0.5-2.3 0-4.1 0.9-1.7 0.9-1.7 2.9 0 1 0.4 1.7 0.4 0.8 1.2 1.5 0.8 0.6 2 1.1 1.1 0.5 2.8 1.1 2.2 0.8 3.9 1.7 1.7 0.7 2.9 1.8 1.2 1 1.9 2.6 0.6 1.5 0.6 3.6 0 4.3-3.2 6.5-3.1 2.2-8.9 2.2-4.1 0-6.4-0.7-2.3-0.7-3.1-1.1l1-4.7q0.9 0.4 3 1.1 2 0.7 5.5 0.7zm24.3-36.2v9.5h11.6v4.6h-11.6v14.1q0 2.3 0.3 3.9 0.4 1.4 1.1 2.3 0.7 0.9 1.8 1.2 1 0.4 2.4 0.4 2.5 0 4-0.6 1.5-0.6 2.1-0.8l1.1 4.5q-0.8 0.5-2.9 1.1-2.1 0.6-4.7 0.6-3.2 0-5.2-0.8-2-0.8-3.3-2.4-1.2-1.6-1.7-3.9-0.5-2.3-0.5-5.4v-27.4zm54.9 12.5q-2.5 7.9-5 14.6-2.5 6.7-5.1 13.1h-5.7q-3.1-9-5.5-19.1-2.4-10-4.5-21.8h6.1q0.8 4.6 1.7 9.2 0.8 4.6 1.8 9 0.9 4.3 1.9 8.2 0.9 4 1.9 7.4 2.4-6.2 5-13.6 2.7-7.5 5-15.4h5q2.3 7.9 5 15.4 2.7 7.4 5 13.6 1-3.4 1.9-7.3 1-4 1.9-8.3 0.9-4.3 1.8-8.9 0.9-4.7 1.7-9.3h5.8q-2.1 11.8-4.5 21.8-2.4 10.1-5.4 19.1h-5.8q-2.5-6.4-5-13.1-2.5-6.7-5-14.6zm57.9 12.4q0 3.6-1.1 6.6-1 2.9-3 5-1.9 2.2-4.5 3.3-2.7 1.2-5.8 1.2-3.1 0-5.8-1.2-2.6-1.1-4.6-3.3-1.9-2.1-2.9-5-1.1-3-1.1-6.6 0-3.6 1.1-6.6 1-3 2.9-5.1 2-2.2 4.6-3.3 2.7-1.2 5.8-1.2 3.1 0 5.8 1.2 2.6 1.1 4.5 3.3 2 2.1 3 5.1 1.1 3 1.1 6.6zm-5.7 0q0-5.2-2.4-8.2-2.3-3.1-6.3-3.1-4 0-6.4 3.1-2.3 3-2.3 8.2 0 5.1 2.3 8.2 2.4 3 6.4 3 4 0 6.3-3 2.4-3.1 2.4-8.2zm24.8-16q0.7 0 1.5 0.1 1 0 1.9 0.2 0.9 0.1 1.6 0.3 0.7 0.1 1.1 0.2l-1 4.8q-0.6-0.2-2.1-0.5-1.5-0.4-3.9-0.4-1.5 0-3 0.4-1.5 0.3-2 0.4v25.8h-5.5v-29.4q2-0.7 4.9-1.3 2.9-0.6 6.5-0.6zm22.5 14.4q1.8 1.4 3.7 3.4 2 2 3.9 4.3 2 2.3 3.7 4.8 1.7 2.3 2.9 4.4h-6.5q-1.2-2.1-2.9-4.2-1.6-2.2-3.3-4.1-1.8-2-3.6-3.7-1.9-1.6-3.5-2.8v14.8h-5.5v-44.8l5.5-1v28q1.4-1.4 3.1-3.2 1.7-1.7 3.4-3.4 1.6-1.8 3.1-3.4 1.5-1.7 2.5-2.9h6.5q-1.4 1.5-3 3.3-1.6 1.7-3.3 3.6-1.7 1.7-3.5 3.6-1.7 1.7-3.2 3.3zm26.8 12.9q3.4 0 5-0.8 1.6-0.9 1.6-2.9 0-2-1.5-3.2-1.6-1.1-5.3-2.6-1.8-0.7-3.4-1.4-1.6-0.8-2.8-1.8-1.2-1-1.9-2.4-0.7-1.4-0.7-3.5 0-4.1 3-6.4 3-2.5 8.2-2.5 1.3 0 2.6 0.2 1.3 0.1 2.4 0.4 1.2 0.2 2 0.4 0.9 0.2 1.3 0.4l-1 4.7q-0.8-0.5-2.7-0.9-1.9-0.6-4.6-0.6-2.3 0-4 1-1.7 0.9-1.7 2.8 0 1 0.4 1.8 0.4 0.8 1.1 1.4 0.9 0.6 2 1.1 1.2 0.6 2.9 1.2 2.2 0.8 3.9 1.6 1.7 0.8 2.9 1.8 1.2 1.1 1.8 2.6 0.7 1.5 0.7 3.7 0 4.2-3.2 6.4-3.1 2.2-9 2.2-4 0-6.3-0.7-2.3-0.7-3.2-1l1-4.7q1 0.3 3.1 1 2 0.7 5.4 0.7zm24.7 4h-5.5v-44.8l5.5-1v15.7q1.5-0.6 3.2-0.9 1.8-0.3 3.5-0.3 3.7 0 6.1 1 2.4 1 3.8 2.9 1.5 1.8 2.1 4.4 0.6 2.6 0.6 5.8v17.2h-5.5v-16.1q0-2.8-0.4-4.8-0.4-2-1.2-3.2-0.9-1.3-2.4-1.8-1.5-0.6-3.7-0.6-0.8 0-1.8 0.1-0.9 0.1-1.8 0.3-0.8 0.1-1.6 0.3-0.6 0.2-0.9 0.3zm55.3-15.3q0 3.6-1.1 6.6-1 2.9-3 5-1.9 2.2-4.5 3.3-2.7 1.2-5.8 1.2-3.1 0-5.8-1.2-2.7-1.1-4.6-3.3-1.9-2.1-2.9-5-1.1-3-1.1-6.6 0-3.6 1.1-6.6 1-3 2.9-5.1 1.9-2.1 4.6-3.3 2.7-1.1 5.8-1.1 3.1 0 5.8 1.1 2.6 1.2 4.5 3.3 2 2.1 3 5.1 1.1 3 1.1 6.6zm-5.7 0q0-5.2-2.4-8.2-2.3-3.1-6.3-3.1-4 0-6.4 3.1-2.3 3-2.3 8.2 0 5.2 2.3 8.2 2.4 3 6.4 3 4 0 6.3-3 2.4-3 2.4-8.2zm34.7 0q0-5.3-2.6-8.2-2.7-2.9-7.1-2.9-2.5 0-3.9 0.1-1.4 0.2-2.2 0.5v19.3q1 0.8 2.9 1.6 1.9 0.8 4.1 0.8 2.4 0 4-0.9 1.7-0.8 2.8-2.3 1.1-1.5 1.5-3.6 0.5-2 0.5-4.4zm5.7 0q0 3.5-0.9 6.5-0.9 2.9-2.7 5-1.7 2.2-4.3 3.3-2.6 1.2-5.9 1.2-2.6 0-4.7-0.7-2-0.7-3-1.4v12.3h-5.5v-40.6q2-0.5 4.8-1 3-0.6 6.8-0.6 3.6 0 6.4 1.1 2.8 1.1 4.8 3.2 2.1 2 3.1 5.1 1.1 2.9 1.1 6.6zm48.5 0q0 3.6-1.1 6.6-1.1 2.9-3 5-1.9 2.2-4.5 3.3-2.7 1.2-5.8 1.2-3.2 0-5.8-1.2-2.7-1.1-4.6-3.3-1.9-2.1-3-5-1-3-1-6.6 0-3.6 1-6.6 1.1-3 3-5.1 1.9-2.1 4.6-3.3 2.6-1.1 5.8-1.1 3.1 0 5.8 1.1 2.6 1.2 4.5 3.3 1.9 2.1 3 5.1 1.1 3 1.1 6.6zm-5.8 0q0-5.2-2.3-8.2-2.3-3.1-6.3-3.1-4 0-6.4 3.1-2.3 3-2.3 8.2 0 5.2 2.3 8.2 2.4 3 6.4 3 4 0 6.3-3 2.3-3 2.3-8.2zm13.5 15.3v-29.8q1.9-0.5 5-1 3.1-0.5 7.2-0.5 3.7 0 6.1 1 2.4 1 3.8 2.9 1.5 1.9 2.1 4.5 0.6 2.5 0.6 5.7v17.2h-5.5v-16q0-2.9-0.4-4.9-0.4-2-1.3-3.2-0.8-1.3-2.3-1.8-1.5-0.6-3.7-0.6-0.9 0-1.8 0.1-0.9 0-1.8 0.1-0.9 0.1-1.6 0.2-0.6 0.1-0.9 0.2v25.9zm-635.7 71.4q-1.2 0-2.7-0.1-1.4-0.1-2.9-0.2-1.4-0.1-2.8-0.3-1.4-0.2-2.6-0.4v-39.7q1.2-0.3 2.6-0.5 1.4-0.1 2.8-0.3 1.5-0.1 2.9-0.1 1.4-0.1 2.7-0.1 3.5 0 6.6 0.5 3.1 0.6 5.3 1.9 2.3 1.2 3.6 3.3 1.3 2 1.3 5 0 3.4-1.6 5.6-1.5 2.1-4.2 3.2 3.6 1 5.7 3.3 2.1 2.3 2.1 6.5 0 6.2-4.5 9.3-4.5 3.1-14.3 3.1zm2-19.5h-7.3v14.4q0.6 0.1 1.5 0.2 0.8 0 1.8 0.1 1 0 2.4 0 2.5 0 4.8-0.3 2.3-0.4 4-1.2 1.7-0.8 2.7-2.3 1-1.5 1-3.7 0-2-0.7-3.4-0.8-1.4-2.3-2.2-1.4-0.8-3.4-1.2-2-0.4-4.5-0.4zm-7.3-17.2v12.6h6q2.1 0 4-0.3 1.9-0.2 3.2-1 1.4-0.8 2.2-2 0.8-1.3 0.8-3.1 0-1.8-0.8-3-0.8-1.2-2.3-1.9-1.4-0.8-3.4-1.2-1.9-0.3-4.1-0.3-2.2 0-3.4 0-1.2 0.1-2.2 0.2zm42.3 32.3q1.9 0 3.4 0 1.5-0.1 2.5-0.4v-9.1q-0.6-0.3-1.9-0.5-1.3-0.2-3.2-0.2-1.3 0-2.7 0.2-1.3 0.1-2.5 0.7-1.1 0.6-1.9 1.6-0.8 0.9-0.8 2.5 0 2.9 1.9 4.1 1.9 1.1 5.2 1.1zm-0.5-27.4q3.3 0 5.5 0.8 2.3 0.9 3.7 2.5 1.4 1.5 2 3.7 0.6 2.1 0.6 4.7v19.2q-0.7 0.1-2 0.3-1.3 0.2-2.9 0.4-1.5 0.2-3.4 0.3-1.9 0.2-3.7 0.2-2.6 0-4.8-0.6-2.2-0.5-3.7-1.6-1.6-1.2-2.5-3.1-0.9-1.9-0.9-4.5 0-2.6 1-4.4 1.1-1.8 2.8-3 1.8-1.1 4.2-1.6 2.3-0.5 4.9-0.5 0.8 0 1.7 0.1 0.9 0 1.7 0.2 0.8 0.1 1.4 0.2 0.6 0.2 0.8 0.2v-1.5q0-1.4-0.3-2.7-0.3-1.3-1-2.3-0.8-1.1-2.2-1.7-1.3-0.6-3.4-0.6-2.7 0-4.8 0.4-2 0.3-3 0.8l-0.6-4.6q1-0.5 3.5-0.9 2.5-0.4 5.4-0.4zm20.9 31.4v-29.8q1.9-0.5 5-1 3.1-0.5 7.2-0.5 3.6 0 6.1 1 2.4 1 3.8 2.9 1.5 1.9 2.1 4.5 0.6 2.5 0.6 5.7v17.2h-5.5v-16q0-2.9-0.4-4.9-0.4-2-1.3-3.2-0.9-1.3-2.3-1.8-1.5-0.6-3.7-0.6-0.9 0-1.8 0.1-1 0-1.9 0.1-0.8 0.1-1.5 0.2-0.6 0.1-0.9 0.2v25.9zm53.1-1.8v-1.3q-0.8 0.5-2.8 1.3-2 0.7-4.7 0.7-2.8 0-5.3-0.9-2.4-0.9-4.2-2.7-1.9-1.9-2.9-4.7-1.1-2.8-1.1-6.6 0-3.3 1-6.1 1-2.9 2.9-4.9 2-2 4.7-3.1 2.8-1.2 6.3-1.2 3.8 0 6.6 0.6 2.9 0.5 4.9 1v27.3q0 7.1-3.7 10.3-3.6 3.2-11.1 3.2-2.9 0-5.5-0.5-2.5-0.4-4.4-1.1l1-4.8q1.7 0.7 4 1.2 2.5 0.5 5.1 0.5 4.9 0 7-2 2.2-1.9 2.2-6.2zm-0.1-6.1v-17.9q-0.8-0.3-2.2-0.5-1.4-0.2-3.8-0.2-4.4 0-6.8 2.9-2.4 2.9-2.4 7.7 0 2.6 0.7 4.5 0.7 1.9 1.8 3.1 1.2 1.3 2.7 1.9 1.5 0.6 3.1 0.6 2.2 0 4-0.6 1.8-0.7 2.9-1.5zm24.9 3.9l-0.8 4.6q-5-0.1-7.2-2.2-2.1-2.1-2.1-6.4v-36.8l5.5-1v36.9q0 1.4 0.2 2.2 0.3 0.9 0.8 1.5 0.5 0.5 1.4 0.8 0.9 0.2 2.2 0.4zm16.5 0q2 0 3.4 0 1.6-0.1 2.6-0.4v-9.1q-0.6-0.3-2-0.5-1.3-0.2-3.2-0.2-1.2 0-2.6 0.2-1.4 0.1-2.5 0.7-1.2 0.6-1.9 1.6-0.8 0.9-0.8 2.5 0 2.9 1.9 4.1 1.9 1.1 5.1 1.1zm-0.5-27.4q3.3 0 5.6 0.8 2.3 0.9 3.6 2.5 1.5 1.5 2.1 3.7 0.5 2.1 0.5 4.7v19.2q-0.7 0.1-2 0.3-1.2 0.2-2.8 0.4-1.6 0.2-3.5 0.3-1.8 0.2-3.6 0.2-2.6 0-4.8-0.6-2.2-0.5-3.8-1.6-1.6-1.2-2.5-3.1-0.9-1.9-0.9-4.5 0-2.6 1.1-4.4 1-1.8 2.8-3 1.8-1.1 4.1-1.6 2.4-0.5 5-0.5 0.8 0 1.7 0.1 0.9 0 1.6 0.2 0.9 0.1 1.4 0.2 0.6 0.2 0.9 0.2v-1.5q0-1.4-0.3-2.7-0.3-1.3-1.1-2.3-0.7-1.1-2.1-1.7-1.3-0.6-3.4-0.6-2.7 0-4.8 0.4-2 0.3-3 0.8l-0.7-4.6q1.1-0.5 3.6-0.9 2.5-0.4 5.3-0.4zm40.6 26.4h18.9v5h-24.6v-40.9h5.7zm35 1q1.9 0 3.4 0 1.5-0.2 2.5-0.4v-9.1q-0.6-0.3-1.9-0.5-1.3-0.2-3.2-0.2-1.2 0-2.7 0.1-1.3 0.2-2.5 0.8-1.1 0.5-1.9 1.5-0.8 1-0.8 2.6 0 2.9 1.9 4.1 1.9 1.1 5.2 1.1zm-0.5-27.5q3.3 0 5.5 0.9 2.3 0.8 3.7 2.4 1.4 1.6 2 3.7 0.6 2.2 0.6 4.8v19.1q-0.7 0.2-2 0.4-1.3 0.2-2.8 0.3-1.6 0.2-3.5 0.4-1.9 0.1-3.7 0.1-2.6 0-4.8-0.5-2.1-0.5-3.7-1.7-1.6-1.1-2.5-3-0.9-1.9-0.9-4.6 0-2.5 1-4.3 1.1-1.9 2.8-3 1.8-1.1 4.2-1.6 2.3-0.6 4.9-0.6 0.8 0 1.7 0.1 0.9 0.1 1.7 0.3 0.8 0.1 1.4 0.2 0.6 0.1 0.8 0.2v-1.5q0-1.4-0.3-2.7-0.3-1.4-1-2.4-0.8-1-2.2-1.6-1.3-0.7-3.4-0.7-2.7 0-4.8 0.5-2 0.3-3 0.7l-0.6-4.5q1-0.5 3.5-0.9 2.5-0.5 5.4-0.5zm20.9 31.5v-29.8q1.9-0.5 5-1 3.1-0.6 7.2-0.6 3.6 0 6.1 1.1 2.4 1 3.8 2.9 1.5 1.8 2.1 4.4 0.6 2.6 0.6 5.7v17.3h-5.5v-16.1q0-2.8-0.4-4.8-0.4-2-1.3-3.3-0.9-1.2-2.3-1.7-1.5-0.6-3.7-0.6-0.9 0-1.8 0-1 0.1-1.9 0.2-0.8 0.1-1.5 0.2-0.6 0.1-0.9 0.2v25.9zm53.1-1.8v-1.3q-0.7 0.5-2.8 1.2-2 0.8-4.7 0.8-2.8 0-5.3-0.9-2.4-0.9-4.2-2.7-1.9-1.9-2.9-4.7-1.1-2.8-1.1-6.6 0-3.4 1-6.2 1-2.8 2.9-4.8 2-2.1 4.7-3.2 2.8-1.2 6.3-1.2 3.8 0 6.7 0.6 2.8 0.6 4.8 1v27.4q0 7.1-3.7 10.3-3.6 3.2-11.1 3.2-2.8 0-5.4-0.5-2.6-0.5-4.5-1.1l1-4.8q1.7 0.6 4 1.2 2.5 0.4 5.1 0.4 4.9 0 7-1.9 2.2-1.9 2.2-6.2zm-0.1-6.1v-18q-0.8-0.2-2.2-0.4-1.4-0.2-3.8-0.2-4.4 0-6.8 2.9-2.4 2.9-2.4 7.6 0 2.7 0.7 4.6 0.7 1.9 1.8 3.1 1.2 1.3 2.7 1.8 1.5 0.6 3.1 0.6 2.2 0 4-0.6 1.8-0.6 2.9-1.4zm39.4-22.8v29.8q-1.9 0.5-5.1 1-3 0.5-7.1 0.5-3.5 0-6-1-2.4-1-3.8-2.9-1.5-1.9-2.2-4.5-0.6-2.6-0.6-5.7v-17.2h5.5v16q0 5.6 1.7 8.1 1.8 2.4 6 2.4 0.9 0 1.8-0.1 1 0 1.8-0.1 0.8-0.1 1.5-0.2 0.7-0.1 1-0.2v-25.9zm19.8 26.7q1.9 0 3.4 0 1.6-0.2 2.6-0.4v-9.1q-0.6-0.3-2-0.5-1.3-0.2-3.2-0.2-1.2 0-2.6 0.1-1.4 0.2-2.6 0.8-1.1 0.5-1.9 1.5-0.7 1-0.7 2.6 0 2.9 1.9 4.1 1.9 1.1 5.1 1.1zm-0.5-27.5q3.3 0 5.6 0.9 2.3 0.8 3.6 2.4 1.4 1.6 2 3.7 0.6 2.2 0.6 4.8v19.1q-0.7 0.2-2 0.4-1.2 0.2-2.8 0.3-1.6 0.2-3.5 0.4-1.8 0.1-3.7 0.1-2.5 0-4.7-0.5-2.2-0.5-3.8-1.7-1.6-1.1-2.5-3-0.9-1.9-0.9-4.6 0-2.5 1-4.3 1.1-1.9 2.9-3 1.7-1.1 4.1-1.6 2.4-0.6 5-0.6 0.8 0 1.7 0.1 0.8 0.1 1.6 0.3 0.8 0.1 1.4 0.2 0.6 0.1 0.9 0.2v-1.5q0-1.4-0.3-2.7-0.3-1.4-1.1-2.4-0.8-1-2.1-1.6-1.3-0.7-3.4-0.7-2.8 0-4.8 0.5-2 0.3-3 0.7l-0.7-4.5q1.1-0.5 3.6-0.9 2.4-0.5 5.3-0.5zm40.1 29.7v-1.3q-0.7 0.5-2.7 1.2-2 0.8-4.7 0.8-2.8 0-5.3-0.9-2.4-0.9-4.2-2.7-1.9-1.9-2.9-4.7-1.1-2.8-1.1-6.6 0-3.4 1-6.2 1-2.8 2.9-4.8 1.9-2.1 4.7-3.2 2.8-1.2 6.3-1.2 3.8 0 6.6 0.6 2.9 0.6 4.9 1v27.4q0 7.1-3.7 10.3-3.6 3.2-11.1 3.2-2.9 0-5.5-0.5-2.5-0.5-4.4-1.1l1-4.8q1.7 0.6 4 1.2 2.4 0.4 5 0.4 4.9 0 7.1-1.9 2.1-1.9 2.1-6.2zm0-6.1v-18q-0.8-0.2-2.3-0.4-1.3-0.2-3.7-0.2-4.4 0-6.8 2.9-2.4 2.9-2.4 7.6 0 2.7 0.7 4.6 0.7 1.9 1.8 3.1 1.2 1.3 2.7 1.8 1.5 0.6 3.1 0.6 2.2 0 4-0.6 1.8-0.6 2.9-1.4zm13.2-7.4q0-4.1 1.2-7.1 1.2-3.1 3.1-5.1 2-2 4.5-3 2.5-1 5.2-1 6.2 0 9.5 3.9 3.3 3.9 3.3 11.8 0 0.3 0 0.9 0 0.5-0.1 1h-21q0.4 4.8 2.8 7.3 2.4 2.4 7.5 2.4 2.9 0 4.9-0.4 2-0.6 3-1l0.8 4.6q-1 0.5-3.6 1.1-2.5 0.6-5.6 0.6-4.1 0-7-1.2-2.9-1.2-4.8-3.4-1.9-2.1-2.8-5-0.9-2.9-0.9-6.4zm5.8-3h15.3q0-3.7-1.9-6.1-1.9-2.4-5.3-2.4-1.9 0-3.3 0.8-1.5 0.7-2.5 1.8-1 1.2-1.5 2.8-0.6 1.5-0.8 3.1zm53.7-23q8.6 0 13.2 3.3 4.7 3.2 4.7 9.7 0 3.6-1.3 6.1-1.2 2.5-3.6 4.1-2.4 1.5-5.8 2.2-3.5 0.7-7.8 0.7h-4.5v15.2h-5.7v-40.3q2.4-0.6 5.3-0.8 3.1-0.2 5.5-0.2zm0.5 5q-3.7 0-5.6 0.2v16h4.3q3 0 5.3-0.3 2.4-0.5 4-1.3 1.6-1 2.5-2.6 0.9-1.6 0.9-4 0-2.4-1-3.9-0.8-1.6-2.4-2.5-1.6-0.9-3.6-1.3-2.1-0.3-4.4-0.3zm35.5 4.9q0.7 0 1.6 0.2 1 0 1.8 0.2 0.9 0.1 1.6 0.3 0.8 0.1 1.2 0.2l-1 4.8q-0.6-0.2-2.2-0.5-1.4-0.4-3.8-0.4-1.5 0-3.1 0.4-1.4 0.3-1.9 0.4v25.8h-5.5v-29.4q1.9-0.7 4.8-1.3 2.9-0.7 6.5-0.7zm38.5 16q0 3.7-1 6.6-1.1 3-3 5.1-1.9 2.1-4.6 3.3-2.6 1.1-5.7 1.1-3.2 0-5.8-1.1-2.7-1.2-4.6-3.3-1.9-2.1-3-5.1-1-2.9-1-6.6 0-3.6 1-6.5 1.1-3 3-5.1 1.9-2.2 4.6-3.3 2.6-1.2 5.8-1.2 3.1 0 5.7 1.2 2.7 1.1 4.6 3.3 1.9 2.1 3 5.1 1 2.9 1 6.5zm-5.7 0q0-5.2-2.3-8.2-2.3-3-6.3-3-4.1 0-6.4 3-2.3 3-2.3 8.2 0 5.2 2.3 8.3 2.3 3 6.4 3 4 0 6.3-3 2.3-3.1 2.3-8.3zm26.8 16.1q-3.7 0-6.5-1.2-2.8-1.2-4.8-3.3-1.8-2.1-2.8-5-0.9-3-0.9-6.5 0-3.5 1-6.5 1-2.9 2.9-5.1 1.9-2.2 4.6-3.3 2.8-1.3 6.2-1.3 2 0 4.1 0.4 2.1 0.3 3.9 1.1l-1.2 4.7q-1.2-0.6-2.9-1-1.6-0.3-3.4-0.3-4.6 0-7.1 2.9-2.4 2.8-2.4 8.4 0 2.5 0.5 4.5 0.6 2.1 1.8 3.6 1.2 1.4 3.1 2.3 1.9 0.7 4.6 0.7 2.2 0 4-0.4 1.7-0.4 2.7-0.9l0.8 4.6q-0.5 0.3-1.3 0.6-0.9 0.3-2 0.5-1.2 0.2-2.5 0.4-1.2 0.1-2.4 0.1zm12.4-16q0-4.1 1.2-7.1 1.2-3.1 3.1-5.1 2-2 4.5-3 2.5-1 5.2-1 6.2 0 9.5 3.9 3.3 3.9 3.3 11.8 0 0.3 0 0.9 0 0.5-0.1 1h-21q0.4 4.8 2.8 7.3 2.4 2.4 7.6 2.4 2.8 0 4.8-0.4 2-0.6 3-1l0.8 4.6q-1 0.5-3.6 1.1-2.5 0.6-5.6 0.6-4.1 0-7-1.2-2.9-1.2-4.8-3.4-1.9-2.1-2.8-5-0.9-2.9-0.9-6.4zm5.8-3h15.3q0-3.7-1.9-6.1-1.9-2.4-5.3-2.4-1.9 0-3.3 0.8-1.5 0.7-2.5 1.8-1 1.2-1.5 2.8-0.6 1.5-0.8 3.1zm36 14.3q3.4 0 5-0.9 1.6-0.9 1.6-2.8 0-2-1.6-3.2-1.5-1.2-5.2-2.6-1.8-0.7-3.4-1.5-1.6-0.7-2.8-1.7-1.2-1-1.9-2.4-0.7-1.5-0.7-3.5 0-4.1 3-6.5 3-2.4 8.2-2.4 1.3 0 2.6 0.2 1.3 0.1 2.4 0.4 1.2 0.1 2 0.4 0.9 0.2 1.3 0.4l-1 4.7q-0.9-0.5-2.7-0.9-1.9-0.6-4.6-0.6-2.3 0-4 1-1.7 0.9-1.7 2.8 0 1 0.3 1.8 0.5 0.7 1.2 1.4 0.9 0.6 2 1.1 1.2 0.5 2.9 1.1 2.1 0.9 3.9 1.7 1.7 0.8 2.9 1.8 1.2 1.1 1.8 2.6 0.7 1.5 0.7 3.7 0 4.2-3.2 6.4-3.1 2.2-9 2.2-4 0-6.3-0.7-2.3-0.7-3.2-1l1-4.8q1 0.4 3 1.1 2.1 0.7 5.5 0.7zm26.3 0q3.4 0 5-0.9 1.7-0.9 1.7-2.8 0-2-1.6-3.2-1.6-1.2-5.3-2.6-1.8-0.7-3.4-1.5-1.6-0.7-2.8-1.7-1.2-1-1.9-2.4-0.7-1.5-0.7-3.5 0-4.1 3-6.5 3-2.4 8.2-2.4 1.3 0 2.6 0.2 1.3 0.1 2.4 0.4 1.2 0.1 2 0.4 0.9 0.2 1.3 0.4l-1 4.7q-0.8-0.5-2.7-0.9-1.9-0.6-4.6-0.6-2.3 0-4 1-1.7 0.9-1.7 2.8 0 1 0.4 1.8 0.4 0.7 1.1 1.4 0.9 0.6 2 1.1 1.2 0.5 2.9 1.1 2.2 0.9 3.9 1.7 1.7 0.8 2.9 1.8 1.2 1.1 1.9 2.6 0.6 1.5 0.6 3.7 0 4.2-3.2 6.4-3.1 2.2-9 2.2-4 0-6.3-0.7-2.3-0.7-3.2-1l1.1-4.8q0.9 0.4 3 1.1 2 0.7 5.4 0.7zm24.7-26.7v30.7h-5.5v-30.7zm-2.8-5.6q-1.4 0-2.5-0.9-1-1-1-2.7 0-1.6 1-2.5 1.1-1.1 2.5-1.1 1.5 0 2.5 1.1 1.1 0.9 1.1 2.5 0 1.7-1.1 2.7-1 0.9-2.5 0.9zm12.3 36.3v-29.8q1.9-0.5 5-1 3.1-0.6 7.2-0.6 3.6 0 6.1 1.1 2.4 1 3.8 2.9 1.5 1.8 2.1 4.4 0.5 2.6 0.5 5.7v17.3h-5.4v-16.1q0-2.8-0.5-4.8-0.3-2-1.2-3.3-0.9-1.2-2.4-1.7-1.4-0.6-3.6-0.6-0.9 0-1.8 0-1 0.1-1.9 0.2-0.8 0.1-1.5 0.2-0.7 0.1-1 0.2v25.9zm53.1-1.8v-1.3q-0.7 0.5-2.7 1.2-2 0.8-4.7 0.8-2.8 0-5.3-0.9-2.4-0.9-4.2-2.7-1.9-1.9-2.9-4.7-1.1-2.8-1.1-6.6 0-3.4 1-6.2 1-2.8 2.9-4.8 1.9-2.1 4.7-3.2 2.8-1.2 6.3-1.2 3.8 0 6.6 0.6 2.9 0.6 4.9 1v27.4q0 7.1-3.7 10.3-3.6 3.2-11.1 3.2-2.9 0-5.5-0.5-2.5-0.5-4.4-1.1l1-4.8q1.7 0.6 4 1.2 2.4 0.4 5 0.4 4.9 0 7.1-1.9 2.1-1.9 2.1-6.2zm0-6.1v-18q-0.8-0.2-2.3-0.4-1.3-0.2-3.7-0.2-4.4 0-6.8 2.9-2.4 2.9-2.4 7.6 0 2.7 0.7 4.6 0.7 1.9 1.8 3.1 1.2 1.3 2.7 1.8 1.5 0.6 3.1 0.6 2.2 0 4-0.6 1.8-0.6 2.9-1.4z"/>
</svg>